<svg xmlns="http://www.w3.org/2000/svg" xmlns:xlink="http://www.w3.org/1999/xlink" id="visual" viewBox="0 0 900 600" width="900" height="600" version="1.1"><rect x="0" y="0" width="900" height="600" fill="#003a67"/><path d="M0 363L21.5 363.8C43 364.7 86 366.3 128.8 376.5C171.7 386.7 214.3 405.3 257.2 413.7C300 422 343 420 385.8 414C428.7 408 471.3 398 514.2 389.7C557 381.3 600 374.7 642.8 373.5C685.7 372.3 728.3 376.7 771.2 378.7C814 380.7 857 380.3 878.5 380.2L900 380L900 601L878.5 601C857 601 814 601 771.2 601C728.3 601 685.7 601 642.8 601C600 601 557 601 514.2 601C471.3 601 428.7 601 385.8 601C343 601 300 601 257.2 601C214.3 601 171.7 601 128.8 601C86 601 43 601 21.5 601L0 601Z" fill="#002038"/><path d="M0 467L21.5 462C43 457 86 447 128.8 435C171.7 423 214.3 409 257.2 415.8C300 422.7 343 450.3 385.8 460.3C428.7 470.3 471.3 462.7 514.2 453.7C557 444.7 600 434.3 642.8 432.8C685.7 431.3 728.3 438.7 771.2 439C814 439.3 857 432.7 878.5 429.3L900 426L900 601L878.5 601C857 601 814 601 771.2 601C728.3 601 685.7 601 642.8 601C600 601 557 601 514.2 601C471.3 601 428.7 601 385.8 601C343 601 300 601 257.2 601C214.3 601 171.7 601 128.8 601C86 601 43 601 21.5 601L0 601Z" fill="#071a2d"/><path d="M0 454L21.5 452.2C43 450.3 86 446.7 128.8 447.5C171.7 448.3 214.3 453.7 257.2 453C300 452.3 343 445.7 385.8 452.2C428.7 458.7 471.3 478.3 514.2 487.8C557 497.3 600 496.7 642.8 497.7C685.7 498.7 728.3 501.3 771.2 492.8C814 484.3 857 464.7 878.5 454.8L900 445L900 601L878.5 601C857 601 814 601 771.2 601C728.3 601 685.7 601 642.8 601C600 601 557 601 514.2 601C471.3 601 428.7 601 385.8 601C343 601 300 601 257.2 601C214.3 601 171.7 601 128.8 601C86 601 43 601 21.5 601L0 601Z" fill="#091422"/><path d="M0 532L21.5 529.8C43 527.7 86 523.3 128.8 522C171.7 520.7 214.3 522.3 257.2 523C300 523.7 343 523.3 385.8 524.5C428.7 525.7 471.3 528.3 514.2 524.2C557 520 600 509 642.8 505.5C685.7 502 728.3 506 771.2 508.7C814 511.3 857 512.7 878.5 513.3L900 514L900 601L878.5 601C857 601 814 601 771.2 601C728.3 601 685.7 601 642.8 601C600 601 557 601 514.2 601C471.3 601 428.7 601 385.8 601C343 601 300 601 257.2 601C214.3 601 171.7 601 128.8 601C86 601 43 601 21.5 601L0 601Z" fill="#060d18"/><path d="M0 525L21.5 525.7C43 526.3 86 527.7 128.8 535.7C171.7 543.7 214.3 558.3 257.2 559.2C300 560 343 547 385.8 544.5C428.7 542 471.3 550 514.2 548.3C557 546.7 600 535.3 642.8 537.7C685.7 540 728.3 556 771.2 559.7C814 563.3 857 554.7 878.5 550.3L900 546L900 601L878.5 601C857 601 814 601 771.2 601C728.3 601 685.7 601 642.8 601C600 601 557 601 514.2 601C471.3 601 428.7 601 385.8 601C343 601 300 601 257.2 601C214.3 601 171.7 601 128.8 601C86 601 43 601 21.5 601L0 601Z" fill="#00030c"/></svg>